<mxfile host="app.diagrams.net" modified="2021-05-30T00:24:45.760Z" agent="5.0 (Windows NT 10.0; Win64; x64) AppleWebKit/537.36 (KHTML, like Gecko) Chrome/91.0.4472.77 Safari/537.36" etag="m7dzkZyWKWlGeUSXnZop" version="14.7.3" type="github">
  <diagram id="C5RBs43oDa-KdzZeNtuy" name="Page-1">
    <mxGraphModel dx="981" dy="526" grid="0" gridSize="10" guides="1" tooltips="1" connect="1" arrows="1" fold="1" page="1" pageScale="1" pageWidth="827" pageHeight="1169" math="0" shadow="0">
      <root>
        <mxCell id="WIyWlLk6GJQsqaUBKTNV-0" />
        <mxCell id="WIyWlLk6GJQsqaUBKTNV-1" parent="WIyWlLk6GJQsqaUBKTNV-0" />
        <mxCell id="0s0nWDWhX_YkUkEICJqH-27" value="" style="rounded=0;whiteSpace=wrap;html=1;verticalAlign=top;" vertex="1" parent="WIyWlLk6GJQsqaUBKTNV-1">
          <mxGeometry x="50" y="31" width="600" height="300" as="geometry" />
        </mxCell>
        <mxCell id="0s0nWDWhX_YkUkEICJqH-30" value="" style="endArrow=none;html=1;exitX=0.215;exitY=1.001;exitDx=0;exitDy=0;exitPerimeter=0;" edge="1" parent="WIyWlLk6GJQsqaUBKTNV-1" source="0s0nWDWhX_YkUkEICJqH-27">
          <mxGeometry width="50" height="50" relative="1" as="geometry">
            <mxPoint x="180" y="446" as="sourcePoint" />
            <mxPoint x="180" y="30" as="targetPoint" />
          </mxGeometry>
        </mxCell>
        <mxCell id="0s0nWDWhX_YkUkEICJqH-31" value="" style="endArrow=none;dashed=1;html=1;entryX=-0.002;entryY=0.209;entryDx=0;entryDy=0;entryPerimeter=0;strokeColor=#999999;" edge="1" parent="WIyWlLk6GJQsqaUBKTNV-1" target="0s0nWDWhX_YkUkEICJqH-27">
          <mxGeometry width="50" height="50" relative="1" as="geometry">
            <mxPoint x="652" y="94" as="sourcePoint" />
            <mxPoint x="49" y="101" as="targetPoint" />
          </mxGeometry>
        </mxCell>
        <mxCell id="0s0nWDWhX_YkUkEICJqH-33" value="" style="endArrow=none;dashed=1;html=1;entryX=-0.002;entryY=0.478;entryDx=0;entryDy=0;entryPerimeter=0;strokeColor=#808080;" edge="1" parent="WIyWlLk6GJQsqaUBKTNV-1" target="0s0nWDWhX_YkUkEICJqH-27">
          <mxGeometry width="50" height="50" relative="1" as="geometry">
            <mxPoint x="650" y="174" as="sourcePoint" />
            <mxPoint x="49" y="176" as="targetPoint" />
          </mxGeometry>
        </mxCell>
        <mxCell id="0s0nWDWhX_YkUkEICJqH-34" value="" style="endArrow=none;dashed=1;html=1;entryX=0;entryY=0.25;entryDx=0;entryDy=0;exitX=1;exitY=0.25;exitDx=0;exitDy=0;" edge="1" parent="WIyWlLk6GJQsqaUBKTNV-1">
          <mxGeometry width="50" height="50" relative="1" as="geometry">
            <mxPoint x="650" y="261" as="sourcePoint" />
            <mxPoint x="50" y="261" as="targetPoint" />
          </mxGeometry>
        </mxCell>
        <mxCell id="0s0nWDWhX_YkUkEICJqH-35" value="Selección de Producto" style="text;html=1;strokeColor=none;fillColor=none;align=center;verticalAlign=middle;whiteSpace=wrap;rounded=0;" vertex="1" parent="WIyWlLk6GJQsqaUBKTNV-1">
          <mxGeometry x="70" y="48.25" width="90" height="20" as="geometry" />
        </mxCell>
        <mxCell id="0s0nWDWhX_YkUkEICJqH-36" value="Detalle de Factura" style="text;html=1;strokeColor=none;fillColor=none;align=center;verticalAlign=middle;whiteSpace=wrap;rounded=0;" vertex="1" parent="WIyWlLk6GJQsqaUBKTNV-1">
          <mxGeometry x="70" y="131" width="90" height="20" as="geometry" />
        </mxCell>
        <mxCell id="0s0nWDWhX_YkUkEICJqH-37" value="Compra/Facturación" style="text;html=1;strokeColor=none;fillColor=none;align=center;verticalAlign=middle;whiteSpace=wrap;rounded=0;" vertex="1" parent="WIyWlLk6GJQsqaUBKTNV-1">
          <mxGeometry x="70" y="211" width="90" height="20" as="geometry" />
        </mxCell>
        <mxCell id="0s0nWDWhX_YkUkEICJqH-38" value="Post - Venta" style="text;html=1;strokeColor=none;fillColor=none;align=center;verticalAlign=middle;whiteSpace=wrap;rounded=0;" vertex="1" parent="WIyWlLk6GJQsqaUBKTNV-1">
          <mxGeometry x="70" y="281" width="90" height="20" as="geometry" />
        </mxCell>
        <mxCell id="0s0nWDWhX_YkUkEICJqH-39" value="&lt;b&gt;DB Trigger:&amp;nbsp;&lt;/b&gt;&lt;br&gt;&lt;span style=&quot;line-height: 107% ; font-family: &amp;#34;calibri&amp;#34; , sans-serif&quot;&gt;&lt;font style=&quot;font-size: 10px&quot;&gt;tr_af_del_actualizaExistencias&lt;/font&gt;&lt;/span&gt;" style="rounded=0;whiteSpace=wrap;html=1;fillColor=#d5e8d4;strokeColor=#82b366;" vertex="1" parent="WIyWlLk6GJQsqaUBKTNV-1">
          <mxGeometry x="420" y="271" width="140" height="40" as="geometry" />
        </mxCell>
        <mxCell id="0s0nWDWhX_YkUkEICJqH-40" value="&lt;font style=&quot;font-size: 12px&quot;&gt;&lt;b&gt;Usuario:&lt;/b&gt;&lt;/font&gt;&lt;br&gt;&lt;span style=&quot;font-size: 10px&quot;&gt;Selecciona &lt;br&gt;Producto y Cantidad&lt;br&gt;&lt;/span&gt;" style="shape=parallelogram;perimeter=parallelogramPerimeter;whiteSpace=wrap;html=1;fixedSize=1;fillColor=#dae8fc;strokeColor=#6c8ebf;fontStyle=2" vertex="1" parent="WIyWlLk6GJQsqaUBKTNV-1">
          <mxGeometry x="205" y="40.75" width="130" height="45.5" as="geometry" />
        </mxCell>
        <mxCell id="0s0nWDWhX_YkUkEICJqH-41" value="&lt;b&gt;DB Trigger:&amp;nbsp;&lt;/b&gt;&lt;br&gt;&lt;span style=&quot;line-height: 107% ; font-family: &amp;#34;calibri&amp;#34; , sans-serif&quot;&gt;&lt;font style=&quot;font-size: 10px&quot;&gt;tr_af_upd_calculoSubTotal&lt;/font&gt;&lt;/span&gt;" style="rounded=0;whiteSpace=wrap;html=1;fillColor=#d5e8d4;strokeColor=#82b366;" vertex="1" parent="WIyWlLk6GJQsqaUBKTNV-1">
          <mxGeometry x="414" y="46" width="130" height="35" as="geometry" />
        </mxCell>
        <mxCell id="0s0nWDWhX_YkUkEICJqH-42" value="&lt;b&gt;DB Trigger:&amp;nbsp;&lt;/b&gt;&lt;br&gt;&lt;span style=&quot;line-height: 107% ; font-family: &amp;#34;calibri&amp;#34; , sans-serif&quot;&gt;&lt;font style=&quot;font-size: 10px&quot;&gt;tr_af_upd_calculoIVA&lt;/font&gt;&lt;/span&gt;" style="rounded=0;whiteSpace=wrap;html=1;fillColor=#d5e8d4;strokeColor=#82b366;" vertex="1" parent="WIyWlLk6GJQsqaUBKTNV-1">
          <mxGeometry x="370" y="121" width="130" height="40" as="geometry" />
        </mxCell>
        <mxCell id="0s0nWDWhX_YkUkEICJqH-43" value="&lt;b&gt;DB Trigger:&amp;nbsp;&lt;/b&gt;&lt;br&gt;&lt;span style=&quot;line-height: 107% ; font-family: &amp;#34;calibri&amp;#34; , sans-serif&quot;&gt;&lt;font style=&quot;font-size: 10px&quot;&gt;tr_af_upd_calculoTotalFactura&lt;/font&gt;&lt;/span&gt;" style="rounded=0;whiteSpace=wrap;html=1;fillColor=#d5e8d4;strokeColor=#82b366;" vertex="1" parent="WIyWlLk6GJQsqaUBKTNV-1">
          <mxGeometry x="510" y="121" width="126" height="40" as="geometry" />
        </mxCell>
        <mxCell id="0s0nWDWhX_YkUkEICJqH-44" value="&lt;font style=&quot;font-size: 12px&quot;&gt;&lt;b&gt;Usuario:&lt;/b&gt;&lt;/font&gt;&lt;br&gt;&lt;span style=&quot;font-size: 10px&quot;&gt;Finaliza la compra&lt;br&gt;&lt;/span&gt;" style="shape=parallelogram;perimeter=parallelogramPerimeter;whiteSpace=wrap;html=1;fixedSize=1;fillColor=#dae8fc;strokeColor=#6c8ebf;fontStyle=2" vertex="1" parent="WIyWlLk6GJQsqaUBKTNV-1">
          <mxGeometry x="200" y="196" width="130" height="50" as="geometry" />
        </mxCell>
        <mxCell id="0s0nWDWhX_YkUkEICJqH-48" value="&lt;font style=&quot;font-size: 12px&quot;&gt;&lt;b&gt;Usuario:&lt;/b&gt;&lt;/font&gt;&lt;br&gt;&lt;span style=&quot;font-size: 10px&quot;&gt;Verifica monto total&lt;br&gt;&lt;/span&gt;" style="shape=parallelogram;perimeter=parallelogramPerimeter;whiteSpace=wrap;html=1;fixedSize=1;fillColor=#dae8fc;strokeColor=#6c8ebf;fontStyle=2" vertex="1" parent="WIyWlLk6GJQsqaUBKTNV-1">
          <mxGeometry x="210" y="118.25" width="120" height="45.5" as="geometry" />
        </mxCell>
        <mxCell id="0s0nWDWhX_YkUkEICJqH-49" value="" style="rounded=0;html=1;jettySize=auto;orthogonalLoop=1;fontSize=11;endArrow=block;endFill=0;endSize=8;strokeWidth=1;shadow=0;labelBackgroundColor=none;edgeStyle=orthogonalEdgeStyle;fillColor=#dae8fc;strokeColor=#6c8ebf;" edge="1" parent="WIyWlLk6GJQsqaUBKTNV-1">
          <mxGeometry relative="1" as="geometry">
            <mxPoint x="264.71" y="111.26999999999998" as="sourcePoint" />
            <mxPoint x="265" y="118.25" as="targetPoint" />
            <Array as="points">
              <mxPoint x="265.17" y="88.26999999999998" />
              <mxPoint x="265.17" y="151.26999999999998" />
            </Array>
          </mxGeometry>
        </mxCell>
        <mxCell id="0s0nWDWhX_YkUkEICJqH-52" value="" style="rounded=0;html=1;jettySize=auto;orthogonalLoop=1;fontSize=11;endArrow=block;endFill=0;endSize=8;strokeWidth=1;shadow=0;labelBackgroundColor=none;edgeStyle=orthogonalEdgeStyle;fillColor=#dae8fc;strokeColor=#6c8ebf;" edge="1" parent="WIyWlLk6GJQsqaUBKTNV-1">
          <mxGeometry relative="1" as="geometry">
            <mxPoint x="264.7099999999999" y="186.76" as="sourcePoint" />
            <mxPoint x="265.0000000000001" y="193.74" as="targetPoint" />
            <Array as="points">
              <mxPoint x="265.17" y="163.76" />
              <mxPoint x="265.17" y="226.76" />
            </Array>
          </mxGeometry>
        </mxCell>
        <mxCell id="0s0nWDWhX_YkUkEICJqH-53" value="" style="endArrow=none;html=1;exitX=0.215;exitY=1.001;exitDx=0;exitDy=0;exitPerimeter=0;dashed=1;strokeColor=#999999;" edge="1" parent="WIyWlLk6GJQsqaUBKTNV-1">
          <mxGeometry width="50" height="50" relative="1" as="geometry">
            <mxPoint x="349.5" y="332.30000000000007" as="sourcePoint" />
            <mxPoint x="350.5" y="31" as="targetPoint" />
          </mxGeometry>
        </mxCell>
      </root>
    </mxGraphModel>
  </diagram>
</mxfile>
